<?xml version="1.0" encoding="iso-8859-1"?>
<!-- Generator: Adobe Illustrator 17.1.0, SVG Export Plug-In . SVG Version: 6.00 Build 0)  -->
<!DOCTYPE svg PUBLIC "-//W3C//DTD SVG 1.1//EN" "http://www.w3.org/Graphics/SVG/1.1/DTD/svg11.dtd">
<svg version="1.1" id="Capa_1" xmlns="http://www.w3.org/2000/svg" xmlns:xlink="http://www.w3.org/1999/xlink" x="0px" y="0px"
	 viewBox="0 0 466 466" style="enable-background:new 0 0 466 466;" xml:space="preserve">
<g>
	<path d="M437.27,397.416h-2.392c-1.601-22.202-10.227-35.521-26.654-56.286c-8.165-10.322-14.908-19.687-20.461-28.821
		c-0.132-0.245-0.276-0.483-0.432-0.711c-18.718-31.096-23.639-59.731-23.639-114.667c0-36.031-14.214-68.884-40.022-92.509
		c-10.957-10.03-23.489-18.029-37.051-23.808V28.225C286.618,12.662,273.957,0,258.394,0h-50.787
		c-15.563,0-28.225,12.662-28.225,28.225v52.388c-13.562,5.779-26.094,13.778-37.051,23.808
		c-25.809,23.625-40.023,56.479-40.023,92.509c0,54.936-4.92,83.571-23.637,114.666c-0.157,0.23-0.301,0.469-0.434,0.715
		c-5.553,9.134-12.296,18.498-20.46,28.819c-16.426,20.765-25.052,34.085-26.654,56.286H28.73c-4.418,0-8,3.582-8,8s3.582,8,8,8
		h144.23C176.89,443.052,202.307,466,233,466s56.11-22.948,60.039-52.584h144.23c4.418,0,8-3.582,8-8
		S441.688,397.416,437.27,397.416z M195.382,28.225c0-6.741,5.484-12.225,12.225-12.225h50.787c6.74,0,12.225,5.484,12.225,12.225
		v46.738c-12.057-3.414-24.703-5.187-37.618-5.187s-25.562,1.773-37.618,5.187V28.225z M118.308,196.93
		c0-69.577,58.314-111.154,114.692-111.154c56.377,0,114.691,41.577,114.691,111.154c0,51.218,4.381,81.576,19.39,111.163H98.918
		C113.927,278.506,118.308,248.148,118.308,196.93z M67.943,354.093H300c4.418,0,8-3.582,8-8s-3.582-8-8-8H80.19
		c3.479-4.781,6.658-9.423,9.566-14h286.488c2.908,4.577,6.087,9.219,9.566,14H330c-4.418,0-8,3.582-8,8s3.582,8,8,8h68.057
		c13.773,17.692,19.46,27.907,20.782,43.323H47.162C48.483,382,54.171,371.785,67.943,354.093z M233,450
		c-21.852,0-40.07-15.807-43.852-36.584h87.703C273.069,434.193,254.852,450,233,450z"/>
	<path d="M256.618,38c0-4.418-3.582-8-8-8h-31.236c-4.418,0-8,3.582-8,8s3.582,8,8,8h31.236C253.036,46,256.618,42.418,256.618,38z"
		/>
</g>
<g>
</g>
<g>
</g>
<g>
</g>
<g>
</g>
<g>
</g>
<g>
</g>
<g>
</g>
<g>
</g>
<g>
</g>
<g>
</g>
<g>
</g>
<g>
</g>
<g>
</g>
<g>
</g>
<g>
</g>
</svg>
